<svg xmlns="http://www.w3.org/2000/svg" role="img" viewBox="0 0 24 24" width="32">
  <title>Spotify</title>
  <path fill="#ffffffff" d="M12 0C5.37 0 0 5.37 0 12c0 6.63 5.37 12 12 12s12-5.37 12-12c0-6.63-5.37-12-12-12zm5.47 17.52a.72.72 0 0 1-.99.27c-2.72-1.67-6.14-2.05-10.18-1.13a.72.72 0 0 1-.33-1.39c4.46-1.01 8.23-.57 11.25 1.32.34.21.44.65.25.93zm1.57-3.15a.93.93 0 0 1-1.26.38c-3.12-1.9-7.88-2.46-11.55-1.25a.93.93 0 0 1-1.11-.71c-.16-.5.14-1.02.64-1.18 4.18-1.33 9.49-.7 13.1 1.48.44.27.58.86.27 1.28zm.18-3.6c-3.61-2.15-9.53-2.35-13.02-1.23a1.15 1.15 0 0 1-.67-2.19c4.04-1.24 10.58-1 14.76 1.48a1.15 1.15 0 0 1-1.07 1.94z"/>
</svg>
